<svg width="16" height="21" viewBox="0 0 16 21" fill="none" xmlns="http://www.w3.org/2000/svg">
<path d="M8.00426 0C3.59149 0 0 3.63122 0 8.09281C0 11.2809 1.31915 14.5077 3.81702 17.4204C5.68085 19.5974 7.53192 20.8279 7.60851 20.8795C7.72766 20.957 7.86383 21 8 21C8.13617 21 8.27234 20.9613 8.39149 20.8795C8.46809 20.8279 10.3191 19.5974 12.183 17.4204C14.6809 14.5077 16 11.2809 16 8.09281C16 3.63122 12.4085 0 7.99575 0H8.00426ZM8.00426 11.0959C6.30638 11.0959 4.93191 9.70621 4.93191 7.98955C4.93191 6.2729 6.30638 4.88322 8.00426 4.88322C9.70213 4.88322 11.0766 6.2729 11.0766 7.98955C11.0766 9.70621 9.70213 11.0959 8.00426 11.0959Z" fill="white"/>
</svg>
