<svg xmlns="http://www.w3.org/2000/svg" width="178" height="178" fill="none">
<path fill="#fff" d="M.154 83.944C2.2 48.372 25.264 17.689 58.166 5.5c23.42-8.674 49.646-7.029 71.846 4.516 20.172 10.488 35.737 28.488 43.203 50.219 3.422 9.958 5.008 20.35 4.76 31.177-.227 9.942-2.111 19.687-5.651 29.233a.375.375 0 0 1-.388.269l-1.923-.012c-.173-.002-.228-.084-.165-.244 5.825-15.373 7.298-31.103 4.42-47.19-5.979-33.41-31.679-60.579-64.182-68.588-10.782-2.656-21.595-3.269-32.44-1.838C35.856 8.55 3.54 43.786 2.354 86.73c-.323 11.745 1.64 23.116 5.889 34.112a.043.043 0 0 1 .003.022.046.046 0 0 1-.026.036.046.046 0 0 1-.022.006H5.825c-.024 0-.04-.012-.05-.037C1.296 108.954-.578 96.646.153 83.944Z"/>
<path fill="#fff" d="M96.364 4.526c34.145 3.014 63.275 26.626 73.395 59.892 5.581 18.35 4.745 38.289-2.323 56.335a.277.277 0 0 1-.118.135.265.265 0 0 1-.174.032 1.607 1.607 0 0 0-.545.003c-.164.031-.216-.032-.153-.189 12.758-32.173 4.91-68.676-19.977-92.486C123.742 6.505 90.761-.625 61.186 9.888 30.777 20.697 8.98 48.378 5.824 81.022c-1.314 13.604.57 26.852 5.65 39.746.008.016.01.034.008.052a.117.117 0 0 1-.018.051.115.115 0 0 1-.04.036.117.117 0 0 1-.052.013l-.623-.003a.284.284 0 0 1-.264-.18c-3.096-7.827-4.98-15.815-5.651-23.966C3.37 79.044 6.95 62.487 15.57 47.102a78.564 78.564 0 0 1 3.234-5.242C36.121 16 65.724 1.824 96.364 4.526Z"/>
<path fill="#fff" d="m122.886 109.873-.012.031a.045.045 0 0 1-.03.033 27.485 27.485 0 0 1-8.717 2.202.357.357 0 0 0-.193.076.19.19 0 0 1-.105.037c-.901.04-1.807.056-2.717.046-.095-.002-.142-.051-.142-.147l.003-1.667a.15.15 0 0 1 .038-.099.15.15 0 0 1 .095-.045c1.131-.103 1.988-.251 2.569-.442.237-.08.689-.287 1.357-.623.51-.257.959-.573 1.348-.95 3.909-3.789 4.875-9.651 5.01-15.132.125-5 .132-9.494.021-13.484-.069-2.528-.24-5.026-1.122-7.432-1.009-2.754-2.605-4.665-4.787-5.734-1.174-.576-2.685-.878-4.535-.907-3.017-.047-6.148-.06-9.394-.04-.104 0-.156.053-.156.16v46.471a.08.08 0 0 1-.021.054.07.07 0 0 1-.051.023l-12.331-.003a.09.09 0 0 1-.064-.027.093.093 0 0 1-.026-.065c.018-14.933.014-29.683-.013-44.25-.002-.649-.175-1.39-.52-2.225a.215.215 0 0 0-.214-.14L68.84 65.59a.342.342 0 0 0-.21.073.352.352 0 0 0-.124.187l-10.766 39.41c-.03.118-.106.177-.226.177l-13.552-.003c-.145 0-.198-.071-.16-.211l24.424-89.91c.032-.123.112-.186.24-.186h10.306c.109 0 .177.054.205.162l9.836 35.993c.078.29.118.284.118-.015v-27.78c0-.079.039-.118.117-.118h11.988a.157.157 0 0 1 .156.159l.006 40.181c0 .316.156.475.467.477 2.112.012 4.312.008 6.601-.013 1.35-.012 2.598-.11 3.743-.293 1.334-.213 2.503-.661 3.506-1.343 2.473-1.682 3.758-4.287 4.125-7.215.361-2.876.325-5.71.343-8.595.024-3.398-.11-6.428-.403-9.09a25.46 25.46 0 0 0-1.357-5.881 14.616 14.616 0 0 0-2.212-3.985c-.804-1.04-1.699-1.811-2.684-2.314-.8-.412-1.507-.559-2.347-.77-.156-.038-.233-.14-.231-.305l.003-.778c0-.145.071-.215.213-.211a14.87 14.87 0 0 1 2.486.265c.367.072.736.124 1.107.156.355.03.709.086 1.062.165 1.793.4 3.314.856 4.562 1.371.762.316 1.582.717 2.461 1.203.373.21.724.435 1.053.675.345.254.695.493 1.05.717.442.28.885.645 1.33 1.097.572.577 1.147 1.096 1.661 1.719 2.57 3.108 4.078 6.699 4.526 10.772.322 2.956.274 5.899.243 8.873-.072 7.02-3.607 11.716-9.728 14.833-.136.07-.136.138 0 .205 6.59 3.264 11.179 8.806 11.2 16.402.008 3.08.013 6.095.015 9.044.006 8.098-3.391 15.249-10.775 18.827a2.74 2.74 0 0 1-.289.12.063.063 0 0 0-.042.036ZM88.021 64.216l-9.352-34.493c-.076-.285-.154-.285-.235 0l-9.505 34.54a.126.126 0 0 0 .063.144.123.123 0 0 0 .054.014l18.83-.012c.133 0 .18-.065.145-.193ZM50.173 116.789l-.036-.284c-.01-.098.033-.145.13-.141l2.735.092c.09.002.135.049.135.14a2915.4 2915.4 0 0 0 .006 17.795c.01 2.428-.575 4.803-2.609 5.997-1.3.763-2.655.905-4.065.425-1.98-.674-3.059-2.112-3.238-4.315-.004-.047.018-.07.064-.07l2.897-.003c.044 0 .066.022.063.067-.038.995-.034 1.915.013 2.757.038.743.427 1.211 1.167 1.405 1.682.436 2.627-1.066 2.675-2.538.056-1.652.066-3.494.03-5.523-.002-.153-.073-.201-.214-.144-2.365.962-5.148.574-6.264-1.899-.357-.792-.513-1.946-.467-3.462.05-1.584.05-3.263 0-5.038-.08-2.751.614-5.136 3.596-5.634 1.104-.186 2.209.058 3.235.486a.1.1 0 0 0 .054.006.107.107 0 0 0 .084-.064.114.114 0 0 0 .01-.055Zm-1.64.07c-1.429-.516-2.35.021-2.344 1.609.016 4.043.02 8.271.012 12.684-.003 2.406 3.01 1.343 3.843.253a.492.492 0 0 0 .105-.308c.002-4.098.005-8.279.01-12.543 0-1.011-.822-1.405-1.626-1.695ZM67.755 116.862c1.168-.485 2.254-.624 3.259-.419 2.194.446 3.34 1.883 3.436 4.312a.104.104 0 0 1-.062.098.092.092 0 0 1-.04.008l-2.81.003a.088.088 0 0 1-.062-.025.083.083 0 0 1-.026-.06c.002-.908.001-1.85-.003-2.827-.012-2.272-3.893-1.032-3.893.375l.003 16.952c0 .021-.009.04-.023.054a.077.077 0 0 1-.056.023l-2.85.003a.068.068 0 0 1-.05-.023.077.077 0 0 1-.021-.054v-18.775a.145.145 0 0 1 .144-.146l2.666-.006c.104 0 .165.051.184.152a.551.551 0 0 1 .003.19c-.03.179.037.234.201.165ZM112.435 134.874c-2.247.989-5.097.613-6.24-1.817-.333-.711-.498-1.633-.494-2.766.024-5.047.025-9.646.003-13.799 0-.036.015-.071.04-.097a.133.133 0 0 1 .096-.04l2.798-.006c.022 0 .042.009.057.025a.085.085 0 0 1 .024.06c-.004 5.669-.003 11.366.003 17.09.003 2.26 2.627 1.521 3.563.641.454-.424.373-.888.373-1.471l.003-16.223c0-.021.008-.041.022-.056a.072.072 0 0 1 .053-.023l2.799-.006c.062 0 .093.031.093.094l.003 18.69c0 .124-.061.186-.184.186l-2.605.003a.2.2 0 0 1-.196-.168.453.453 0 0 1-.003-.156c.028-.183-.041-.237-.208-.161ZM130.004 135.035v6.052c0 .055-.026.083-.078.083l-2.835-.006c-.04 0-.06-.02-.06-.058l.003-24.617c0-.085.042-.128.127-.128l2.693-.012c.028 0 .055.007.08.02a.182.182 0 0 1 .091.215.633.633 0 0 0-.021.107c-.02.173.05.228.211.165 1.944-.779 4.089-.721 5.542.772.777.798 1.163 1.777 1.159 2.938-.008 2.562.005 5.424.039 8.586.02 1.893-.135 3.183-.464 3.871-1.167 2.452-3.977 2.861-6.246 1.854-.161-.074-.241-.021-.241.158Zm3.924-1.038v-16.28c0-.255-.1-.5-.278-.68a.94.94 0 0 0-.67-.282h-.683c-.611 0-1.198.197-1.63.549-.432.352-.675.829-.675 1.326v14.454c0 .498.243.974.675 1.326.432.352 1.019.549 1.63.549h.683a.94.94 0 0 0 .67-.282.968.968 0 0 0 .278-.68ZM94.276 130.637a4.775 4.775 0 0 1-1.362 3.353 4.64 4.64 0 0 1-3.3 1.394l-.523.001a4.637 4.637 0 0 1-3.305-1.382 4.777 4.777 0 0 1-1.373-3.349l-.016-9.459a4.773 4.773 0 0 1 1.361-3.353 4.632 4.632 0 0 1 3.3-1.394l.524-.001a4.637 4.637 0 0 1 3.304 1.382 4.775 4.775 0 0 1 1.374 3.348l.016 9.46Zm-2.972-12.071a1.77 1.77 0 0 0-.507-1.243 1.72 1.72 0 0 0-1.226-.515h-.511c-.46 0-.901.185-1.226.515a1.77 1.77 0 0 0-.508 1.243v14.724c0 .466.183.913.508 1.243.325.33.766.515 1.225.515h.512c.46 0 .9-.185 1.226-.515.325-.33.507-.777.507-1.243v-14.724ZM9.431 124.978a.192.192 0 0 0-.106-.111.184.184 0 0 0-.077-.014.182.182 0 0 0-.075.018l-.978.47c-.09.045-.16.022-.208-.07l-.307-.589c-.054-.102-.029-.175.075-.22l4.36-1.878c.115-.051.197-.018.247.098.382.897 1.237 2.25.981 3.209-.343 1.291-2.097 1.826-2.99.736-.362-.44-.669-.99-.922-1.649Zm2.414-1.264-1.658.757a.075.075 0 0 0-.043.07.08.08 0 0 0 .006.028l.467 1.044c.114.256.312.46.551.568.24.108.5.112.725.009l.093-.043a.89.89 0 0 0 .473-.556c.079-.254.059-.54-.055-.796l-.466-1.045a.072.072 0 0 0-.093-.036ZM165.875 125.216a.08.08 0 0 0-.008.033c0 .012.002.023.006.034a.081.081 0 0 0 .019.029.069.069 0 0 0 .028.02l3.737 1.597a.1.1 0 0 1 .033.024.099.099 0 0 1 .028.075.107.107 0 0 1-.01.039l-.295.647a.141.141 0 0 1-.186.073l-4.381-1.896c-.094-.043-.121-.112-.078-.207l1.218-2.773a.168.168 0 0 1 .142-.095c.154-.002.321.036.499.113.153.068.195.178.126.33l-.878 1.957ZM16.562 132.987l-.927.58a.103.103 0 0 0-.03.138l1.153 1.874a.103.103 0 0 1-.005.117.105.105 0 0 1-.031.027l-.539.287a.1.1 0 0 1-.13-.037l-1.14-1.89a.099.099 0 0 0-.135-.036l-.996.592a.099.099 0 0 0-.046.063.102.102 0 0 0 .013.077l1.357 2.226a.107.107 0 0 1 .014.039.107.107 0 0 1-.002.042.107.107 0 0 1-.02.037.093.093 0 0 1-.031.026l-.539.299a.1.1 0 0 1-.073.009.099.099 0 0 1-.06-.046l-1.835-3.035a.104.104 0 0 1 .004-.113.1.1 0 0 1 .03-.027l4.164-2.449a.102.102 0 0 1 .074-.011.097.097 0 0 1 .061.045l1.815 2.943a.105.105 0 0 1 .012.078.102.102 0 0 1-.046.063l-.535.317a.1.1 0 0 1-.135-.036l-1.306-2.165a.097.097 0 0 0-.061-.045.102.102 0 0 0-.075.011ZM161.688 135.653l1.215-1.994a.103.103 0 0 0 .013-.082.104.104 0 0 0-.049-.067l-1.619-.956a.095.095 0 0 1-.031-.029.103.103 0 0 1-.018-.04.124.124 0 0 1-.001-.043.123.123 0 0 1 .017-.041l.436-.613a.107.107 0 0 1 .136-.031l4.149 2.434a.106.106 0 0 1 .048.065.104.104 0 0 1-.012.081l-.373.651a.103.103 0 0 1-.065.048.1.1 0 0 1-.079-.012l-1.685-.998a.102.102 0 0 0-.08-.012.106.106 0 0 0-.065.049l-1.206 1.993a.103.103 0 0 0-.015.04.104.104 0 0 0 .051.11l1.649.965a.107.107 0 0 1 .039.143l-.349.663a.105.105 0 0 1-.027.032.102.102 0 0 1-.078.024.117.117 0 0 1-.04-.013l-4.224-2.474a.098.098 0 0 1-.049-.069.101.101 0 0 1 .016-.083l.445-.632a.105.105 0 0 1 .141-.028l1.565.953a.1.1 0 0 0 .079.013.105.105 0 0 0 .066-.047ZM20.094 143.457c.074.936.623 1.525 1.646 1.765.024.006.037.022.04.049.013.279-.036.526-.148.742-.012.022-.03.031-.054.027-1.962-.418-3.268-2.693-1.749-4.387 1.773-1.973 4.86-.391 4.658 2.119-.008.111-.067.158-.177.14l-.533-.085a.147.147 0 0 1-.12-.144c-.004-1.046-.466-1.698-1.387-1.954-1.017-.281-2.266.598-2.176 1.728ZM155.99 145.485l-.981-3.783a.281.281 0 0 1 .084-.3 1.38 1.38 0 0 0 .277-.354c.076-.142.177-.164.304-.064l3.65 2.876a.21.21 0 0 1 .071.221.207.207 0 0 1-.038.072l-.34.422c-.083.099-.174.11-.274.03l-2.453-1.945c-.1-.079-.135-.057-.105.067.285 1.179.598 2.396.939 3.652.108.397-.075.718-.373.956-.084.069-.169.07-.253.003l-3.65-2.879a.17.17 0 0 1-.044-.052.166.166 0 0 1-.021-.065.187.187 0 0 1 .035-.131l.382-.506c.052-.07.113-.078.181-.025l2.434 1.924c.171.134.229.094.175-.119ZM57.813 146.77a.292.292 0 0 0-.085.264.288.288 0 0 0 .17.215 6.62 6.62 0 0 0 1.215.394c1.107.247 1.131 1.691.081 1.988-.69.193-1.38.13-2.07-.19-.135-.061-.188-.165-.16-.311a.464.464 0 0 1 .064-.156c.108-.165.246-.198.415-.101.403.232.861.314 1.375.245.325-.043.514-.391.337-.678a.334.334 0 0 0-.217-.15 9.071 9.071 0 0 1-1.164-.345c-1.27-.47-.837-1.844.328-2.009a2.952 2.952 0 0 1 1.537.18c.105.043.144.12.118.232l-.07.296a.147.147 0 0 1-.08.103.145.145 0 0 1-.13-.002c-.716-.362-1.271-.354-1.664.025ZM65.388 145.925l-.404-.001a.152.152 0 0 0-.15.152l-.006 3.475c0 .084.067.153.15.153l.403.001c.083 0 .15-.068.15-.153l.007-3.475a.15.15 0 0 0-.15-.152ZM71.47 147.481l-.002 2.08c0 .099-.05.148-.148.146l-.445-.003c-.096 0-.144-.048-.144-.143l.003-2.916c.002-.896.297-1.011.887-.345a40.38 40.38 0 0 1 1.574 1.905c.152.195.227.168.223-.082l-.025-1.982c-.002-.118.055-.181.169-.189l.352-.028c.138-.01.208.055.208.196l-.006 3.37c0 .108-.053.175-.157.199-.267.063-.483-.01-.65-.22-.535-.672-1.09-1.357-1.66-2.055-.12-.144-.178-.122-.178.067ZM80.323 146.767c-1.522 1.044.187 3.19 1.622 2.036.139-.112.263-.097.373.043l.097.125c.114.145.095.268-.058.37-.551.376-1.171.488-1.859.336-1.165-.26-1.824-1.497-1.327-2.611.563-1.264 2.121-1.481 3.205-.754a.213.213 0 0 1 .09.129.23.23 0 0 1-.021.161l-.066.125c-.11.202-.26.237-.446.107-.561-.395-1.098-.417-1.61-.067ZM101.883 149.1h1.405c.092 0 .134.047.126.14l-.036.321a.168.168 0 0 1-.052.105.155.155 0 0 1-.107.041l-2.095-.003c-.68 0-.772-.236-.276-.708l1.552-1.478a.547.547 0 0 0-.102-.87c-.387-.224-.799-.167-1.237.171a.153.153 0 0 1-.068.029.15.15 0 0 1-.073-.008.987.987 0 0 1-.458-.333c-.016-.02-.015-.037.004-.051.84-.682 1.665-.756 2.476-.22.114.074.198.19.235.323.307 1.115-.662 1.738-1.36 2.37-.125.112-.103.169.066.171ZM109.575 149.771c-.431.002-.846-.201-1.154-.564a2.156 2.156 0 0 1-.483-1.375 2.157 2.157 0 0 1 .469-1.38c.304-.367.717-.575 1.148-.577.432-.002.847.201 1.154.564.307.364.482.859.484 1.375a2.157 2.157 0 0 1-.469 1.38c-.304.367-.717.575-1.149.577Zm-.012-.623c.115 0 .23-.034.336-.1a.954.954 0 0 0 .286-.287c.082-.123.147-.269.191-.429.045-.161.068-.333.068-.507a1.715 1.715 0 0 0-.256-.938c-.164-.249-.387-.389-.62-.389a.638.638 0 0 0-.337.1.963.963 0 0 0-.285.287 1.514 1.514 0 0 0-.192.429 1.932 1.932 0 0 0-.067.507c-.001.352.091.689.255.938.165.249.388.389.621.389ZM116.243 146.535l-.521.039a.115.115 0 0 1-.052-.007.115.115 0 0 1-.045-.027.12.12 0 0 1-.032-.042.132.132 0 0 1-.012-.052l-.013-.363c0-.018.003-.037.009-.054a.131.131 0 0 1 .072-.076.131.131 0 0 1 .052-.011l1.279-.003c.035 0 .068.014.093.04a.134.134 0 0 1 .039.095l-.006 3.496a.134.134 0 0 1-.129.134l-.458.003a.148.148 0 0 1-.051-.009.135.135 0 0 1-.084-.125v-2.904a.145.145 0 0 0-.011-.054.125.125 0 0 0-.031-.044.124.124 0 0 0-.099-.036ZM88.31 147.53c.44-.079.933-.074 1.477.016.12.018.185.089.195.213.01.139-.052.22-.186.245-.474.087-.981.118-1.523.091a.182.182 0 0 0-.073.012.176.176 0 0 0-.105.101.187.187 0 0 0-.014.073l.008.587c.003.159.08.239.235.241l1.73.015c.16.002.237.085.23.248l-.004.094c-.006.153-.084.229-.235.229l-2.392.009c-.146.002-.22-.071-.22-.219l.01-3.304c.002-.151.077-.226.225-.226l2.293.015c.17 0 .258.086.262.257l.003.128a.136.136 0 0 1-.132.14l-1.764.049a.255.255 0 0 0-.246.263l.009.543c.002.145.074.205.216.18ZM123.923 147.545c.702.2.957.651.764 1.353-.304 1.115-1.934.931-2.714.547a.223.223 0 0 1-.11-.122.224.224 0 0 1 .005-.165l.105-.245c.052-.122.135-.15.247-.085.508.299 1.679.607 1.799-.299a.261.261 0 0 0-.09-.242c-.235-.207-.521-.29-.86-.247-.123.014-.201-.038-.235-.156a.465.465 0 0 1 .111-.464c.209-.232.412-.463.611-.693.11-.128.081-.191-.087-.189l-1.294.03c-.123.002-.186-.059-.19-.183l-.003-.214c-.004-.156.071-.235.226-.235h1.847c.65-.002.761.245.331.739l-.538.62c-.106.122-.081.206.075.25ZM29.272 149.106l-.99-.974a.142.142 0 0 1 .006-.211l.406-.342a.137.137 0 0 1 .187.006l2.828 2.779a.14.14 0 0 1 0 .201l-.39.379a.14.14 0 0 1-.098.038.143.143 0 0 1-.096-.041l-.974-.984a.139.139 0 0 0-.193 0l-2.816 2.782a.135.135 0 0 1-.097.038.134.134 0 0 1-.096-.041l-.475-.473a.142.142 0 0 1 0-.202l2.798-2.754a.142.142 0 0 0 0-.201ZM148.764 155.743l.433.407c.12.111.122.224.006.338l-.301.303a.26.26 0 0 1-.178.073.238.238 0 0 1-.174-.076l-.981-1.042c-.08-.085-.085-.175-.015-.268.255-.334.254-.684-.003-1.051a17.633 17.633 0 0 0-2.103-2.503c-.09-.09-.089-.177.003-.263l2.446-2.281c.092-.083.182-.08.268.009l2.678 2.779c.076.079.16.089.253.03a.55.55 0 0 0 .216-.244.162.162 0 0 1 .197-.084.176.176 0 0 1 .065.041l1.113 1.155c.053.053.052.105-.003.158l-.466.461c-.052.051-.103.049-.153-.006l-.53-.577a.175.175 0 0 0-.25-.012l-2.521 2.339c-.111.104-.111.209 0 .314Zm-.154-1.258 1.607-1.505a.101.101 0 0 0 .019-.027.108.108 0 0 0 .007-.031.087.087 0 0 0-.006-.032.073.073 0 0 0-.017-.026l-2.236-2.302c-.05-.053-.101-.055-.153-.006l-1.273 1.175a.131.131 0 0 0-.042.095.14.14 0 0 0 .042.098 8.763 8.763 0 0 1 1.926 2.54c.034.063.076.07.126.021ZM39.127 158.833c-.131.314-.326.597-.572.833-.247.236-.542.42-.868.542a2.718 2.718 0 0 1-1.03.169 2.87 2.87 0 0 1-1.922-.824 2.786 2.786 0 0 1-.6-.867 2.623 2.623 0 0 1-.22-1.009 2.458 2.458 0 0 1 .762-1.83c.246-.236.54-.42.866-.542a2.7 2.7 0 0 1 1.03-.17 2.866 2.866 0 0 1 1.923.824c.255.251.458.546.599.868.14.322.216.665.221 1.009.006.344-.059.683-.19.997Zm-.779-1.077c0-.467-.182-.915-.508-1.246a1.725 1.725 0 0 0-1.228-.516c-.46 0-.902.186-1.227.516a1.777 1.777 0 0 0 0 2.492c.325.33.767.516 1.227.516.46 0 .902-.186 1.228-.516.326-.33.508-.779.508-1.246ZM138.018 158.812c.567.71 1.066 1.495 1.495 2.354.441.879.258 1.533-.551 1.96-.096.053-.176.034-.24-.058l-.274-.388a.167.167 0 0 1-.028-.062.173.173 0 0 1 .067-.182c.605-.436.132-1.249-.162-1.71a39.386 39.386 0 0 0-1.442-2.097c-.074-.1-.061-.186.039-.257l2.73-1.926a.203.203 0 0 1 .153-.035.213.213 0 0 1 .135.083l2.705 3.677c.099.132.081.245-.054.339l-.34.238a.285.285 0 0 1-.394-.064l-2.181-2.98c-.095-.131-.207-.15-.337-.059l-1.285.907c-.103.074-.115.16-.036.26ZM44.498 164.586l-.539.974a.092.092 0 0 1-.05.042.077.077 0 0 1-.061-.005l-.728-.376c-.059-.03-.07-.074-.037-.131l2.404-4.067c.063-.104.147-.128.253-.073 1.132.574 3.758 1.737 2.633 3.514-.942 1.487-2.266.858-3.544.037a.233.233 0 0 0-.331.085Zm1.462-2.47-.852 1.463a.129.129 0 0 0 .046.174l.98.589c.233.14.506.189.758.138a.875.875 0 0 0 .587-.413l.049-.076a.865.865 0 0 0 .112-.348.943.943 0 0 0-.038-.375 1.06 1.06 0 0 0-.185-.346 1.125 1.125 0 0 0-.302-.262l-.98-.587a.113.113 0 0 0-.047-.017.126.126 0 0 0-.128.06ZM132.514 164.73c.092.327.115.67.068 1.01a2.609 2.609 0 0 1-.344.973 2.786 2.786 0 0 1-.702.787 2.901 2.901 0 0 1-2.013.582 2.723 2.723 0 0 1-1.005-.294 2.546 2.546 0 0 1-.797-.643 2.456 2.456 0 0 1-.535-1.906c.048-.34.164-.67.344-.972.179-.302.417-.569.701-.787a2.897 2.897 0 0 1 2.014-.582c.354.033.695.133 1.005.293.309.161.58.38.797.643.217.264.376.569.467.896Zm-.864.779a1.719 1.719 0 0 0-.505-1.236 1.78 1.78 0 0 0-1.246-.523 1.793 1.793 0 0 0-1.256.496 1.733 1.733 0 0 0-.531 1.225 1.73 1.73 0 0 0 .505 1.236 1.78 1.78 0 0 0 1.246.523 1.785 1.785 0 0 0 1.256-.496 1.709 1.709 0 0 0 .531-1.225ZM53.678 169.536l-.647.632a.28.28 0 0 1-.291.061l-.611-.223c-.14-.053-.155-.129-.042-.229l3.71-3.377a.647.647 0 0 1 .334-.163.66.66 0 0 1 .655.284c.071.106.111.23.115.358l.138 4.959c.004.14-.057.182-.183.125l-.593-.26a.255.255 0 0 1-.165-.259l.015-.895c.002-.101-.044-.172-.136-.21l-2.052-.852a.208.208 0 0 0-.247.049Zm.849-.797a.095.095 0 0 0-.027.043.1.1 0 0 0-.004.05.11.11 0 0 0 .021.047c.01.013.024.024.04.031l1.396.604a.103.103 0 0 0 .098-.007.112.112 0 0 0 .034-.038.103.103 0 0 0 .013-.049l-.018-1.924a.104.104 0 0 0-.121-.105.101.101 0 0 0-.054.029l-1.378 1.319ZM120.134 170.748l-.461 1.896a.106.106 0 0 1-.06.074l-.851.369a.105.105 0 0 1-.14-.067.114.114 0 0 1-.002-.058l.729-2.776a.112.112 0 0 0-.046-.116l-2.262-1.514a.103.103 0 0 1-.036-.044.118.118 0 0 1-.008-.056.1.1 0 0 1 .021-.052.1.1 0 0 1 .044-.034l.812-.321a.101.101 0 0 1 .096.012l1.535 1.038a.103.103 0 0 0 .096.01.1.1 0 0 0 .063-.074l.434-1.746a.107.107 0 0 1 .063-.074l.86-.342a.111.111 0 0 1 .057-.004.093.093 0 0 1 .051.026c.015.013.025.03.03.049a.104.104 0 0 1 .001.058l-.695 2.571a.1.1 0 0 0 .002.066.1.1 0 0 0 .04.053l2.452 1.615a.108.108 0 0 1 .038.044.107.107 0 0 1-.059.145l-.83.327c-.016.006-.033.008-.05.006a.112.112 0 0 1-.047-.018l-1.718-1.127a.11.11 0 0 0-.047-.017.12.12 0 0 0-.049.007.128.128 0 0 0-.04.029.113.113 0 0 0-.023.045ZM67.644 172.125l.467-1.728a.126.126 0 0 1 .022-.044.115.115 0 0 1 .038-.033.13.13 0 0 1 .096-.011l.71.204a.13.13 0 0 1 .087.156l-1.287 4.586a.13.13 0 0 1-.061.079.136.136 0 0 1-.049.015.121.121 0 0 1-.05-.005l-.7-.226a.128.128 0 0 1-.082-.159l.523-1.786a.134.134 0 0 0-.01-.101.135.135 0 0 0-.034-.039.13.13 0 0 0-.046-.022l-2.23-.598c-.016-.005-.032-.007-.049-.005a.131.131 0 0 0-.085.048.14.14 0 0 0-.022.045l-.523 1.817a.127.127 0 0 1-.062.078.12.12 0 0 1-.048.016.142.142 0 0 1-.05-.006l-.683-.21a.144.144 0 0 1-.044-.023.13.13 0 0 1-.043-.136l1.276-4.565a.125.125 0 0 1 .154-.088l.697.186a.127.127 0 0 1 .094.108.132.132 0 0 1-.004.051l-.478 1.734a.129.129 0 0 0 .012.099c.008.014.02.027.033.038.014.01.029.017.045.022l2.233.592a.12.12 0 0 0 .094-.013.124.124 0 0 0 .06-.076ZM101.402 171.313a.629.629 0 0 0 .401-.403.362.362 0 0 1 .213-.235.714.714 0 0 1 .479-.025c.056.015.083.051.081.11-.021.757-.707 1.023-1.33 1.118-.554.085-.991-.114-1.312-.599-.064-.095-.05-.178.042-.247.273-.212.503-.191.689.061a.65.65 0 0 0 .737.22ZM78.85 174.247l.243-1.808a.11.11 0 0 1 .12-.091l.777.079a.12.12 0 0 1 .041.013.113.113 0 0 1 .055.112l-.677 4.751a.114.114 0 0 1-.014.042.111.111 0 0 1-.067.051.123.123 0 0 1-.042.002l-.75-.119a.11.11 0 0 1-.09-.122l.274-1.89a.11.11 0 0 0-.056-.109.099.099 0 0 0-.04-.013l-2.35-.293a.101.101 0 0 0-.08.023.106.106 0 0 0-.028.033.115.115 0 0 0-.013.041l-.216 1.857a.11.11 0 0 1-.04.071.104.104 0 0 1-.078.023l-.788-.079a.104.104 0 0 1-.075-.042.106.106 0 0 1-.021-.083l.65-4.733a.107.107 0 0 1 .04-.072.108.108 0 0 1 .08-.023l.761.089a.11.11 0 0 1 .093.122l-.234 1.829a.107.107 0 0 0 .002.043.11.11 0 0 0 .019.04.112.112 0 0 0 .072.042l2.311.306a.106.106 0 0 0 .078-.022.11.11 0 0 0 .042-.07ZM100.753 175.538l1.95-3.49a.215.215 0 0 1 .168-.116l.632-.088c.105-.017.165.029.181.137l.683 4.586c.02.122-.031.193-.154.211l-.625.092c-.117.018-.183-.032-.199-.15l-.385-2.892c-.038-.276-.125-.293-.259-.048a409.271 409.271 0 0 1-1.82 3.261c-.187.326-.521.274-.834.32-.122.019-.194-.034-.213-.159l-.693-4.57c-.02-.143.04-.22.18-.233l.573-.051c.14-.013.219.051.237.192l.389 2.959c.026.205.089.218.189.039ZM87.851 174.605c1.078-.01 2.958-.184 3.058 1.447.14 2.372-2.675 1.92-4.078 1.902-.1-.002-.15-.054-.15-.156l-.01-4.708c0-.089.045-.135.133-.137l.707-.009c.089 0 .133.044.133.134l-.012 1.304c0 .148.073.223.22.223Zm-.21.885v1.57c0 .031.012.062.034.085a.12.12 0 0 0 .083.037l1.291.003a.92.92 0 0 0 .616-.235.809.809 0 0 0 .19-.262.76.76 0 0 0 .067-.309v-.196a.763.763 0 0 0-.066-.31.816.816 0 0 0-.187-.263.918.918 0 0 0-.614-.239l-1.29-.003a.114.114 0 0 0-.087.035.123.123 0 0 0-.036.087ZM92.44 172.932l-.753.004a.107.107 0 0 0-.104.108l.024 4.799c0 .059.048.107.106.107l.752-.004a.107.107 0 0 0 .105-.108l-.025-4.799a.106.106 0 0 0-.105-.107Z"/>
</svg>