<svg width="20" height="15" viewBox="0 0 20 15" fill="none" xmlns="http://www.w3.org/2000/svg">
<path d="M20.0004 13.2213V0.966309L13.1797 6.96964L20.0004 13.2213Z" fill="white"/>
<path d="M0 0.713867C0 0.713867 0 0.726708 0 0.735272V13.1359L6.81221 6.88848L0 0.713867Z" fill="white"/>
<path d="M11.2454 7.20108L19.3632 0.0544577C19.3632 0.0544577 19.3335 0.0458984 19.3166 0.0458984H0.90625L8.77823 7.18395C9.47768 7.81769 10.5374 7.82625 11.2411 7.20108H11.2454Z" fill="white"/>
<path d="M11.9675 8.0357C11.4122 8.52385 10.717 8.76791 10.026 8.76791C9.33503 8.76791 8.61015 8.51528 8.05059 8.00572L7.63516 7.62891L0.615234 14.0647C0.640669 14.0647 0.661864 14.0776 0.687299 14.0776H19.3096L12.349 7.69742L11.9717 8.03141L11.9675 8.0357Z" fill="white"/>
</svg>
