<svg width="18" height="18" viewBox="0 0 18 18" fill="none" xmlns="http://www.w3.org/2000/svg">
<path d="M16.1326 10.9535C15.5058 10.8843 14.8833 10.7546 14.2781 10.5687C13.5259 10.3396 12.7133 10.5385 12.1599 11.0918L11.0101 12.2416C8.80548 11.0356 6.9683 9.19848 5.76657 6.99396L6.91643 5.84415C7.46974 5.29086 7.66859 4.47821 7.43948 3.72608C7.2536 3.12524 7.12824 2.50278 7.05475 1.87168C6.93372 0.804003 6.03026 0 4.95389 0H2.11383C1.52161 0 0.951009 0.250711 0.553314 0.687293C0.194524 1.08065 0 1.59072 0 2.11807C0 2.18291 -8.05178e-09 2.24775 0.00864552 2.31259C0.194524 4.34853 0.73487 6.31531 1.61239 8.16106C2.46398 9.95062 3.61383 11.5759 5.01873 12.9808C6.42795 14.3899 8.04899 15.5354 9.83862 16.387C11.6801 17.2644 13.647 17.8048 15.6873 17.9906C16.2795 18.0468 16.8718 17.848 17.3127 17.446C17.7493 17.0483 18 16.4777 18 15.8855V13.0456C18 11.9693 17.196 11.0658 16.1282 10.9448L16.1326 10.9535Z" fill="white"/>
</svg>
